<svg width="500" height="500" title="Mapa das Estrelas" version="1.1" xmlns="http://www.w3.org/2000/svg"><g><path class="outline" d="M250.00000000000003,498.53515625L275.97899795079877,497.1736546594L301.67336456359345,493.104066783939L326.8015869808828,486.3709798799967L351.08835513944433,477.0481630566817L374.2675781249998,465.23775904603497L396.0852995199552,451.06916510588314L416.30247980305575,434.69761531640347L434.6976153164028,416.3024798030565L451.0691651058826,396.0852995199559L465.23775904603445,374.26757812500057L477.04816305668123,351.0883551394452L486.3709798799964,326.8015869808837L493.10406678393883,301.67336456359436L497.17365465939986,275.9789979507996L498.53515625,250.00000000000105L497.1736546594001,224.02100204920248L493.10406678393923,198.32663543640766L486.3709798799971,173.19841301911828L477.04816305668214,148.91164486055675L465.23775904603553,125.73242187500122L451.0691651058838,103.91470048004572L434.6976153164042,83.69752019694508L416.3024798030573,65.30238468359795L396.08529951995683,48.93083489411808L374.26757812500153,34.762240953966085L351.0883551394462,22.951836943319194L326.80158698088474,13.62902012000393L301.67336456359556,6.895933216061422L275.9789979508006,2.826345340600227L250.00000000000003,1.46484375L224.02100204920362,2.8263453405998007L198.32663543640876,6.895933216060513L173.1984130191193,13.629020120002593L148.91164486055777,22.951836943317403L125.73242187500217,34.76224095396395L103.9147004800466,48.93083489411555L83.69752019694582,65.30238468359514L65.30238468359855,83.69752019694204L48.93083489411853,103.91470048004251L34.762240953966426,125.73242187499787L22.95183694331942,148.91164486055328L13.6290201200041,173.19841301911478L6.895933216061479,198.3266354364042L2.8263453406002554,224.02100204919904L1.46484375,249.99999999999773L2.8263453405998007,275.9789979507964L6.895933216060541,301.67336456359135L13.62902012000265,326.80158698088087L22.951836943317545,351.0883551394425L34.762240953964124,374.2675781249982L48.93083489411586,396.08529951995376L65.30238468359548,416.30247980305455L83.69752019694243,434.69761531640177L103.91470048004291,451.0691651058818L125.7324218749983,465.23775904603383L148.9116448605537,477.0481630566808L173.19841301911518,486.37097987999607L198.32663543640462,493.1040667839386L224.02100204919938,497.17365465939974L249.99999999999997,498.53515625Z" style="fill: rgb(199, 226, 212);"></path></g></svg>