<svg width="77" height="87" viewBox="0 0 77 87" fill="none" xmlns="http://www.w3.org/2000/svg">
<path d="M35.52 87C34.48 84.36 33.4 81.92 32.28 79.68C31.24 77.36 29.92 74.88 28.32 72.24C26.72 69.6 24.72 66.52 22.32 63C19.92 59.48 16.88 55.2 13.2 50.16C8.48 43.68 5.12 38.12 3.12 33.48C1.12 28.84 0.12 24.32 0.12 19.92C0.12 16.4 1 13.2 2.76 10.32C4.6 7.35999 7 5.03999 9.96 3.36C13 1.6 16.28 0.719995 19.8 0.719995C23.56 0.719995 27.04 1.67999 30.24 3.59999C33.52 5.52 36.2 8.44 38.28 12.36C40.44 8.44 43.16 5.52 46.44 3.59999C49.72 1.67999 53.24 0.719995 57 0.719995C60.44 0.719995 63.64 1.6 66.6 3.36C69.64 5.03999 72.08 7.35999 73.92 10.32C75.76 13.2 76.68 16.4 76.68 19.92C76.68 22.72 76.28 25.6 75.48 28.56C74.76 31.44 73.44 34.64 71.52 38.16C69.6 41.6 66.96 45.64 63.6 50.28C59.92 55.4 56.84 59.76 54.36 63.36C51.88 66.88 49.84 69.96 48.24 72.6C46.72 75.24 45.4 77.68 44.28 79.92C43.16 82.16 42.12 84.52 41.16 87H35.52ZM38.28 76.56C39.8 73.52 41.84 70 44.4 66C47.04 62 50.12 57.56 53.64 52.68C57.16 47.8 60.04 43.6 62.28 40.08C64.52 36.56 66.12 33.76 67.08 31.68C69 27.44 69.96 23.52 69.96 19.92C69.96 17.6 69.36 15.52 68.16 13.68C66.96 11.76 65.36 10.24 63.36 9.11999C61.44 7.99999 59.32 7.43999 57 7.43999C53.56 7.43999 50.44 8.87999 47.64 11.76C44.84 14.56 42.76 18.44 41.4 23.4H35.28C33.76 17.96 31.6 13.96 28.8 11.4C26.08 8.75999 23.08 7.43999 19.8 7.43999C17.56 7.43999 15.44 7.99999 13.44 9.11999C11.44 10.24 9.84 11.76 8.64 13.68C7.44 15.52 6.84 17.6 6.84 19.92C6.84 23.28 7.76 27.12 9.6 31.44C11.36 35.52 15.76 42.36 22.8 51.96C26.32 56.6 29.36 61 31.92 65.16C34.48 69.24 36.6 73.04 38.28 76.56Z" fill="rgb(223,82,118)"/>
</svg>
