<svg width="65" height="85" viewBox="0 0 65 85" fill="none" xmlns="http://www.w3.org/2000/svg">
<path d="M8.52 84.2C6.04 84.2 4.16 83.56 2.88 82.28C1.6 81.08 0.96 79.48 0.96 77.48C0.96 75.32 1.56 73.32 2.76 71.48C4.04 69.56 5.68 68.04 7.68 66.92C9.68 65.8 11.76 65.24 13.92 65.24C14.88 65.24 15.84 65.36 16.8 65.6C17.84 65.76 18.84 66.04 19.8 66.44V12.44L64.68 0.919995V62C64.68 65.44 63.92 68.48 62.4 71.12C60.96 73.68 59.04 75.72 56.64 77.24C54.32 78.68 51.76 79.4 48.96 79.4C46.48 79.4 44.6 78.8 43.32 77.6C42.04 76.32 41.4 74.68 41.4 72.68C41.4 70.52 42 68.52 43.2 66.68C44.48 64.76 46.12 63.24 48.12 62.12C50.12 61 52.2 60.44 54.36 60.44C55.32 60.44 56.28 60.56 57.24 60.8C58.28 60.96 59.28 61.24 60.24 61.64V10.16L24.24 20.12V66.8C24.24 70.24 23.48 73.28 21.96 75.92C20.52 78.48 18.6 80.48 16.2 81.92C13.88 83.44 11.32 84.2 8.52 84.2Z" fill="rgb(0,121,131)"/>
</svg>
