<svg width="88" height="89" viewBox="0 0 88 89" fill="none" xmlns="http://www.w3.org/2000/svg">
<path d="M43.8 88.36C37.8 88.36 32.16 87.24 26.88 85C21.6 82.68 16.96 79.52 12.96 75.52C8.96 71.44 5.8 66.76 3.48 61.48C1.24 56.2 0.12 50.52 0.12 44.44C0.12 38.28 1.24 32.56 3.48 27.28C5.8 21.92 8.96 17.28 12.96 13.36C16.96 9.35999 21.6 6.27999 26.88 4.11999C32.16 1.87999 37.8 0.759993 43.8 0.759993C49.96 0.759993 55.68 1.91999 60.96 4.24C66.32 6.48 71 9.64 75 13.72C79 17.72 82.12 22.36 84.36 27.64C86.6 32.84 87.72 38.44 87.72 44.44C87.72 50.52 86.56 56.2 84.24 61.48C82 66.76 78.88 71.44 74.88 75.52C70.88 79.52 66.2 82.68 60.84 85C55.56 87.24 49.88 88.36 43.8 88.36ZM20.04 76.6L43.8 59.32L67.8 76.6L58.68 49.48L80.76 34.6H53.64L43.8 5.32L34.2 34.6H7.08L29.16 49.48L20.04 76.6Z" fill="rgb(27,27,83)"/>
</svg>
