<svg width="500" height="500" data-v-47467140="" xmlns="http://www.w3.org/2000/svg" viewBox="0 0 97.45 136.88" class="" fill="#fff"><defs data-v-47467140=""></defs><title data-v-47467140="">Aquarius</title><g data-v-47467140="" id="Layer_2" data-name="Layer 2"><g data-v-47467140="" id="Layer_1-2" data-name="Layer 1"><g data-v-47467140="" id="Aquarius"><path data-v-47467140="" d="M56.19,31.89a2.36,2.36,0,1,1-2.36-2.35A2.35,2.35,0,0,1,56.19,31.89Z" class="cls-1"></path><path data-v-47467140="" d="M15.29,79.05a2.36,2.36,0,1,1-2.36-2.36A2.36,2.36,0,0,1,15.29,79.05Z" class="cls-1"></path><path data-v-47467140="" d="M7.07,82.19a2.36,2.36,0,1,1-2.35-2.35A2.35,2.35,0,0,1,7.07,82.19Z" class="cls-1"></path><circle data-v-47467140="" cx="47.15" cy="76.69" r="2.36"></circle><path data-v-47467140="" d="M34.43,134.52a2.36,2.36,0,1,1-2.36-2.36A2.36,2.36,0,0,1,34.43,134.52Z" class="cls-1"></path><circle data-v-47467140="" cx="36.79" cy="113.5" r="2.36"></circle><path data-v-47467140="" d="M73.88,118.21a2.36,2.36,0,1,1-2.36-2.35A2.36,2.36,0,0,1,73.88,118.21Z" class="cls-1"></path><path data-v-47467140="" d="M63.66,111.14a2.36,2.36,0,1,1-2.36-2.36A2.36,2.36,0,0,1,63.66,111.14Z" class="cls-1"></path><path data-v-47467140="" d="M4.72,91a2.36,2.36,0,1,1-2.36-2.36A2.36,2.36,0,0,1,4.72,91Z" class="cls-1"></path><path data-v-47467140="" d="M16.86,56.52a3.93,3.93,0,1,1-3.93-3.93A3.93,3.93,0,0,1,16.86,56.52Z" class="cls-1"></path><path data-v-47467140="" d="M97.45,3.93A3.93,3.93,0,1,1,93.52,0,3.93,3.93,0,0,1,97.45,3.93Z" class="cls-1"></path><path data-v-47467140="" d="M88.45,128.23a3.93,3.93,0,1,1-3.93-3.93A3.93,3.93,0,0,1,88.45,128.23Z" class="cls-1"></path><path data-v-47467140="" d="M78.59,70.27a3.93,3.93,0,1,1-3.93-3.93A3.93,3.93,0,0,1,78.59,70.27Z" class="cls-1"></path><polygon data-v-47467140="" points="32.26 135.49 1.93 91.04 4.39 81.9 12.54 78.78 12.54 55.83 47.22 76.27 74.57 69.89 74.75 70.66 47.09 77.11 46.95 77.03 13.32 57.21 13.32 79.32 5.04 82.49 2.78 90.9 31.89 133.55 36.47 113.13 61.41 110.73 71.74 117.89 84.76 127.92 84.28 128.54 71.28 118.53 61.2 111.55 37.11 113.86 32.26 135.49"></polygon><polygon data-v-47467140="" points="13.13 56.86 12.73 56.18 53.63 31.56 93.3 3.61 93.75 4.25 54.06 32.22 13.13 56.86"></polygon></g></g></g></svg>