<svg width="500" height="500" data-v-47467140="" xmlns="http://www.w3.org/2000/svg" viewBox="0 0 168.97 141.86" class="" fill="#cf8a7c"><defs data-v-47467140=""></defs><title data-v-47467140="">Sagittarius</title><g data-v-47467140="" id="Layer_2" data-name="Layer 2"><g data-v-47467140="" id="Layer_1-2" data-name="Layer 1"><g data-v-47467140="" id="Sagittarius"><path data-v-47467140="" d="M128.89,88.55a2.36,2.36,0,1,1-2.36-2.36A2.36,2.36,0,0,1,128.89,88.55Z" class="cls-1"></path><circle data-v-47467140="" cx="166.61" cy="42.05" r="2.36"></circle><path data-v-47467140="" d="M124.17,57.76a2.36,2.36,0,1,1-2.35-2.35A2.35,2.35,0,0,1,124.17,57.76Z" class="cls-1"></path><path data-v-47467140="" d="M115.53,37.33A2.36,2.36,0,1,1,113.17,35,2.36,2.36,0,0,1,115.53,37.33Z" class="cls-1"></path><path data-v-47467140="" d="M76.63,10.22a2.36,2.36,0,1,1-2.36-2.36A2.36,2.36,0,0,1,76.63,10.22Z" class="cls-1"></path><path data-v-47467140="" d="M92,46a2.36,2.36,0,1,1-2.36-2.36A2.35,2.35,0,0,1,92,46Z" class="cls-1"></path><circle data-v-47467140="" cx="71.91" cy="60.12" r="2.36"></circle><circle data-v-47467140="" cx="64.05" cy="51.48" r="2.36"></circle><path data-v-47467140="" d="M9.43,64.84a2.36,2.36,0,1,1-2.36-2.36A2.36,2.36,0,0,1,9.43,64.84Z" class="cls-1"></path><path data-v-47467140="" d="M4.72,73.48a2.36,2.36,0,1,1-2.36-2.36A2.36,2.36,0,0,1,4.72,73.48Z" class="cls-1"></path><path data-v-47467140="" d="M40.08,131.64a2.36,2.36,0,1,1-2.36-2.36A2.36,2.36,0,0,1,40.08,131.64Z" class="cls-1"></path><path data-v-47467140="" d="M64.05,121.1a2.36,2.36,0,1,1-2.36-2.36A2.35,2.35,0,0,1,64.05,121.1Z" class="cls-1"></path><path data-v-47467140="" d="M27.9,108.72a2.36,2.36,0,1,1-2.36-2.36A2.36,2.36,0,0,1,27.9,108.72Z" class="cls-1"></path><path data-v-47467140="" d="M66.41,16.9a2.36,2.36,0,1,1-2.36-2.36A2.36,2.36,0,0,1,66.41,16.9Z" class="cls-1"></path><path data-v-47467140="" d="M54.23,14.54a2.36,2.36,0,1,1-2.36-2.36A2.36,2.36,0,0,1,54.23,14.54Z" class="cls-1"></path><path data-v-47467140="" d="M35.76,2.36A2.36,2.36,0,1,1,33.4,0,2.36,2.36,0,0,1,35.76,2.36Z" class="cls-1"></path><path data-v-47467140="" d="M121,79.77a3.93,3.93,0,1,1-3.93-3.93A3.93,3.93,0,0,1,121,79.77Z" class="cls-1"></path><path data-v-47467140="" d="M143.82,57.76a3.93,3.93,0,1,1-3.93-3.93A3.93,3.93,0,0,1,143.82,57.76Z" class="cls-1"></path><path data-v-47467140="" d="M128.89,6.29A3.93,3.93,0,1,1,125,2.36,3.93,3.93,0,0,1,128.89,6.29Z" class="cls-1"></path><path data-v-47467140="" d="M82.13,42.05a3.93,3.93,0,1,1-3.93-3.93A3.93,3.93,0,0,1,82.13,42.05Z" class="cls-1"></path><path data-v-47467140="" d="M74.27,137.93A3.93,3.93,0,1,1,70.34,134,3.93,3.93,0,0,1,74.27,137.93Z" class="cls-1"></path><path data-v-47467140="" d="M32.62,42.05a3.93,3.93,0,1,1-3.93-3.93A3.93,3.93,0,0,1,32.62,42.05Z" class="cls-1"></path><polygon data-v-47467140="" points="126.26 88.83 116.67 79.91 121.5 57.37 139.78 57.37 166.41 41.71 166.81 42.38 140 58.16 122.13 58.16 117.53 79.63 126.8 88.26 126.26 88.83"></polygon><polygon data-v-47467140="" points="89.6 46.39 77.93 42.37 77.86 42.24 63.8 17.25 51.65 14.87 33.19 2.69 33.62 2.03 52.02 14.17 64.3 16.55 64.39 16.7 78.47 41.72 89.59 45.56 112.87 37.02 124.59 6.15 125.33 6.43 113.47 37.64 89.6 46.39"></polygon><rect data-v-47467140="" x="63.06" y="13.16" width="12.21" height="0.79" transform="translate(3.83 40.01) rotate(-33.13)"></rect><polygon data-v-47467140="" points="121.45 57.92 112.81 37.48 113.53 37.18 122.18 57.61 121.45 57.92"></polygon><polygon data-v-47467140="" points="70.26 138.31 37.47 131.99 25.2 108.9 1.9 73.5 6.79 64.57 28.56 41.61 28.79 41.67 64.26 51.13 71.95 59.59 89.35 45.67 89.84 46.28 71.87 60.66 63.84 51.83 28.81 42.49 7.39 65.07 2.82 73.46 25.87 108.5 37.98 131.29 70.41 137.54 70.26 138.31"></polygon><rect data-v-47467140="" x="36.62" y="125.97" width="26.19" height="0.79" transform="translate(-46.62 30.66) rotate(-23.71)"></rect></g></g></g></svg>