<svg fill="#cf8a7c" width="500" height="500" data-v-47467140="" viewBox="0 0 151 119" version="1.1" xmlns="http://www.w3.org/2000/svg" xmlns:xlink="http://www.w3.org/1999/xlink" class=""><title data-v-47467140="">Artboard</title><g data-v-47467140="" id="Artboard" stroke="none" stroke-width="1" fill="none" fill-rule="evenodd"><g data-v-47467140="" id="Aries" transform="translate(0.000000, 23.000000)" fill="#cf8a7c" fill-rule="nonzero"><circle data-v-47467140="" id="Oval" cx="2.36" cy="2.36" r="2.36"></circle><path data-v-47467140="" d="M144.08,46.24 C144.08,47.1954391 143.503908,48.0566066 142.620808,48.4212961 C141.737708,48.7859855 140.72185,48.5822343 140.047689,47.905204 C139.373527,47.2281737 139.174091,46.2114598 139.542527,45.3299165 C139.910964,44.4483731 140.77457,43.8759515 141.73,43.8799787 C143.029485,43.8855063 144.08,44.9405033 144.08,46.24 Z" id="Path"></path><path data-v-47467140="" d="M105.6,24.18 C105.6,26.3504791 103.840479,28.11 101.67,28.11 C99.4995209,28.11 97.74,26.3504791 97.74,24.18 C97.74,22.0095209 99.4995209,20.25 101.67,20.25 C103.840479,20.25 105.6,22.0095209 105.6,24.18 L105.6,24.18 Z" id="Path"></path><path data-v-47467140="" d="M150.66,69 C150.66,71.1704791 148.900479,72.93 146.73,72.93 C144.559521,72.93 142.8,71.1704791 142.8,69 C142.8,66.8295209 144.559521,65.07 146.73,65.07 C148.900479,65.07 150.66,66.8295209 150.66,69 Z" id="Path"></path><polygon data-v-47467140="" id="Path" points="146.35 69.06 141.38 46.5 101.53 24.55 2.27 2.74 2.44 1.97 101.81 23.81 101.86 23.84 142.07 45.98 147.12 68.89"></polygon></g></g></svg>