<svg width="500" height="500" data-v-47467140="" xmlns="http://www.w3.org/2000/svg" viewBox="0 0 188 152" class="" version="1.1" xmlns:xlink="http://www.w3.org/1999/xlink" fill="#cf8a7c"><title data-v-47467140="">Artboard</title><g data-v-47467140="" id="Artboard" stroke="none" stroke-width="1" fill="none" fill-rule="evenodd"><g data-v-47467140="" id="Pisces" transform="translate(0.000000, 14.000000)" fill="#cf8a7c" fill-rule="nonzero"><path data-v-47467140="" d="M40.92,63.66 C40.92,65.2504455 39.9613955,66.6840947 38.4916271,67.2917935 C37.0218586,67.8994922 35.3307138,67.5614212 34.2075326,66.4353746 C33.0843513,65.3093281 32.75059,63.6173275 33.3620314,62.1491121 C33.9734728,60.6808967 35.4095596,59.7259531 37,59.7299872 C39.1665728,59.7355129 40.92,61.4934202 40.92,63.66 L40.92,63.66 Z" id="Path"></path><path data-v-47467140="" d="M23.58,88 C23.58,89.303392 22.523392,90.36 21.22,90.36 C19.916608,90.36 18.86,89.303392 18.86,88 C18.86,86.696608 19.916608,85.64 21.22,85.64 C22.523392,85.64 23.58,86.696608 23.58,88 Z" id="Path"></path><path data-v-47467140="" d="M147.75,119.46 C147.75,120.763392 146.693392,121.82 145.39,121.82 C144.086608,121.82 143.03,120.763392 143.03,119.46 C143.03,118.156608 144.086608,117.1 145.39,117.1 C146.693392,117.1 147.75,118.156608 147.75,119.46 L147.75,119.46 Z" id="Path"></path><path data-v-47467140="" d="M149.320021,103.22 C149.320021,104.523392 148.263392,105.58 146.96,105.58 C145.656608,105.58 144.6,104.523392 144.6,103.22 C144.6,101.916608 145.656608,100.859979 146.96,100.859979 C147.586726,100.857327 148.188556,101.105111 148.631722,101.548278 C149.074889,101.991444 149.322673,102.593274 149.320021,103.22 Z" id="Path"></path><circle data-v-47467140="" id="Oval" cx="159.54" cy="99.29" r="2.36"></circle><path data-v-47467140="" d="M187.05,109.24 C187.05,110.543392 185.993392,111.6 184.69,111.6 C183.386608,111.6 182.33,110.543392 182.33,109.24 C182.33,107.936608 183.386608,106.88 184.69,106.88 C185.993392,106.88 187.05,107.936608 187.05,109.24 Z" id="Path"></path><path data-v-47467140="" d="M163.47,121 C163.47,122.303392 162.413392,123.36 161.11,123.36 C159.806608,123.36 158.75,122.303392 158.75,121 C158.75,119.696608 159.806608,118.64 161.11,118.64 C162.413392,118.64 163.47,119.696608 163.47,121 L163.47,121 Z" id="Path"></path><path data-v-47467140="" d="M53.8300212,15.19 C53.8340438,16.1463388 53.2605357,17.0105749 52.3777616,17.3784203 C51.4949876,17.7462658 50.4774888,17.5449906 49.8012491,16.8687509 C49.1250094,16.1925112 48.9237342,15.1750124 49.2915797,14.2922384 C49.6594251,13.4094643 50.5236612,12.8359562 51.48,12.8399788 C52.7778692,12.8399788 53.8300212,13.8921308 53.8300212,15.19 L53.8300212,15.19 Z" id="Path"></path><circle data-v-47467140="" id="Oval" cx="56.19" cy="26.98" r="2.36"></circle><path data-v-47467140="" d="M60.12,41 C60.12,42.303392 59.063392,43.36 57.76,43.36 C56.456608,43.36 55.4,42.303392 55.4,41 C55.4,39.696608 56.456608,38.64 57.76,38.64 C59.063392,38.64 60.12,39.696608 60.12,41 L60.12,41 Z" id="Path"></path><path data-v-47467140="" d="M39.35,100.07 C39.35,101.025439 38.7739079,101.886607 37.890808,102.251296 C37.0077081,102.615986 35.9918503,102.412234 35.3176887,101.735204 C34.6435272,101.058174 34.4440914,100.04146 34.8125275,99.1599165 C35.1809635,98.2783731 36.0445695,97.7059515 37,97.7099787 C38.2994851,97.7155063 39.35,98.7705033 39.35,100.07 L39.35,100.07 Z" id="Path"></path><path data-v-47467140="" d="M27.51,102.43 C27.51,103.733392 26.453392,104.79 25.15,104.79 C23.846608,104.79 22.79,103.733392 22.79,102.43 C22.79,101.126608 23.846608,100.07 25.15,100.07 C26.453392,100.07 27.51,101.126608 27.51,102.43 L27.51,102.43 Z" id="Path"></path><path data-v-47467140="" d="M14.9300213,110.81 C14.9340485,111.76543 14.3616269,112.629036 13.4800835,112.997473 C12.5985402,113.365909 11.5818263,113.166473 10.904796,112.492311 C10.2277657,111.81815 10.0240145,110.802292 10.3887039,109.919192 C10.7533934,109.036092 11.6145609,108.459979 12.57,108.459979 C13.1949896,108.45734 13.7952935,108.703754 14.2381692,109.144754 C14.6810448,109.585753 14.9300213,110.185005 14.9300213,110.81 Z" id="Path"></path><path data-v-47467140="" d="M80.56,96.93 C80.56,98.233392 79.503392,99.29 78.2,99.29 C76.896608,99.29 75.84,98.233392 75.84,96.93 C75.84,95.626608 76.896608,94.57 78.2,94.57 C79.503392,94.57 80.56,95.626608 80.56,96.93 L80.56,96.93 Z" id="Path"></path><path data-v-47467140="" d="M66,95.36 C66,96.3163435 65.4227821,97.1781234 64.5384527,97.5422037 C63.6541232,97.9062839 62.6374953,97.7006795 61.964142,97.0215711 C61.2907887,96.3424626 61.0938437,95.3241217 61.4654369,94.4429228 C61.83703,93.5617239 62.7036908,92.9918954 63.66,93 C64.9555748,93.0109798 66,94.0643787 66,95.36 L66,95.36 Z" id="Path"></path><path data-v-47467140="" d="M175.390013,112.38 C175.394047,113.97044 174.439103,115.406527 172.970888,116.017969 C171.502673,116.62941 169.810672,116.295649 168.684625,115.172467 C167.558579,114.049286 167.220508,112.358141 167.828207,110.888373 C168.435905,109.418605 169.869554,108.459987 171.46,108.459987 C172.50138,108.457343 173.501018,108.869169 174.238325,109.6046 C174.975632,110.340031 175.390013,111.338616 175.390013,112.38 Z" id="Path"></path><path data-v-47467140="" d="M132.43,99.29 C132.43,101.460479 130.670479,103.22 128.5,103.22 C126.329521,103.22 124.57,101.460479 124.57,99.29 C124.57,97.1195209 126.329521,95.36 128.5,95.36 C130.670479,95.36 132.43,97.1195209 132.43,99.29 Z" id="Path"></path><path data-v-47467140="" d="M64.05,3.93 C64.05,6.10047907 62.2904791,7.86 60.12,7.86 C57.9495209,7.86 56.19,6.10047907 56.19,3.93 C56.19,1.75952093 57.9495209,0 60.12,0 C61.1623008,0 62.1619117,0.414052383 62.8989297,1.15107035 C63.6359476,1.88808832 64.05,2.88769919 64.05,3.93 Z" id="Path"></path><path data-v-47467140="" d="M7.86,113.17 C7.86,115.340479 6.10047907,117.1 3.93,117.1 C1.75952093,117.1 0,115.340479 0,113.17 C0,110.999521 1.75952093,109.24 3.93,109.24 C4.97230081,109.24 5.97191168,109.654052 6.70892965,110.39107 C7.44594762,111.128088 7.86,112.127699 7.86,113.17 Z" id="Path"></path><polygon data-v-47467140="" id="Path" points="161.24 121.44 161.07 121.42 144.96 119.81 146.54 103.53 128.41 99.67 78.18 97.32 63.67 95.75 37.06 100.46 25.3 102.8 12.68 111.19 3 113.83 20.9 87.8 36.66 63.45 57.35 40.86 55.81 27.08 51.03 15.13 59.81 3.69 60.43 4.17 51.92 15.26 56.58 26.94 58.17 41.13 37.28 63.92 21.55 88.23 4.86 112.51 12.41 110.45 25.07 102.05 36.91 99.69 63.65 94.96 63.7 94.97 78.24 96.54 128.51 98.89 147.39 102.9 145.82 119.11 160.99 120.62 171.28 112.02 184.6 108.86 184.78 109.62 171.64 112.75"></polygon><polygon data-v-47467140="" id="Path" points="171.17 112.65 159.42 99.74 147.08 103.59 146.85 102.84 159.66 98.84 171.75 112.12"></polygon></g></g></svg>