<svg width="500" height="500" data-v-47467140="" xmlns="http://www.w3.org/2000/svg" viewBox="0 0 125.75 119.2" class="" fill="#fff"><defs data-v-47467140=""></defs><title data-v-47467140="">Cancer</title><g data-v-47467140="" id="Layer_2" data-name="Layer 2"><g data-v-47467140="" id="Layer_1-2" data-name="Layer 1"><g data-v-47467140="" id="Cancer"><path data-v-47467140="" d="M36.15,44a2.36,2.36,0,1,1-2.36-2.36A2.36,2.36,0,0,1,36.15,44Z" class="cls-1"></path><path data-v-47467140="" d="M44.4,61.51a2.36,2.36,0,1,1-2.35-2.36A2.36,2.36,0,0,1,44.4,61.51Z" class="cls-1"></path><path data-v-47467140="" d="M43.62,115.27a3.93,3.93,0,1,1-3.93-3.93A3.93,3.93,0,0,1,43.62,115.27Z" class="cls-1"></path><path data-v-47467140="" d="M125.75,90.64a3.93,3.93,0,1,1-3.93-3.93A3.93,3.93,0,0,1,125.75,90.64Z" class="cls-1"></path><path data-v-47467140="" d="M7.86,3.93A3.93,3.93,0,1,1,3.93,0,3.93,3.93,0,0,1,7.86,3.93Z" class="cls-1"></path><polygon data-v-47467140="" points="40.08 115.28 39.3 115.25 41.65 61.59 33.44 44.18 3.61 4.16 4.25 3.69 34.11 43.78 42.44 61.43 42.44 61.53 40.08 115.28"></polygon><rect data-v-47467140="" x="81.54" y="33.62" width="0.79" height="84.92" transform="translate(-17.63 126.94) rotate(-69.94)"></rect></g></g></g></svg>