<svg width="500" height="500" data-v-47467140="" xmlns="http://www.w3.org/2000/svg" viewBox="0 0 144.08 117.94" class="" fill="#cf8a7c"><defs data-v-47467140=""></defs><title data-v-47467140="">Taurus</title><g data-v-47467140="" id="Layer_2" data-name="Layer 2"><g data-v-47467140="" id="Layer_1-2" data-name="Layer 1"><g data-v-47467140="" id="Taurus"><path data-v-47467140="" d="M4.72,39.3a2.36,2.36,0,1,1-2.36-2.36A2.36,2.36,0,0,1,4.72,39.3Z" class="cls-1"></path><circle data-v-47467140="" cx="56.59" cy="73.14" r="2.36"></circle><path data-v-47467140="" d="M140.94,108a2.36,2.36,0,1,1-2.36-2.35A2.36,2.36,0,0,1,140.94,108Z" class="cls-1"></path><path data-v-47467140="" d="M144.08,115.58a2.36,2.36,0,1,1-2.35-2.36A2.36,2.36,0,0,1,144.08,115.58Z" class="cls-1"></path><path data-v-47467140="" d="M68.11,76.29a2.36,2.36,0,1,1-2.36-2.36A2.35,2.35,0,0,1,68.11,76.29Z" class="cls-1"></path><path data-v-47467140="" d="M79.9,77.86a2.36,2.36,0,1,1-2.36-2.36A2.35,2.35,0,0,1,79.9,77.86Z" class="cls-1"></path><circle data-v-47467140="" cx="74.4" cy="65.28" r="2.36"></circle><path data-v-47467140="" d="M68.11,66.07a2.36,2.36,0,1,1-2.36-2.36A2.36,2.36,0,0,1,68.11,66.07Z" class="cls-1"></path><path data-v-47467140="" d="M67.33,57.55A2.36,2.36,0,1,1,65,55.2,2.36,2.36,0,0,1,67.33,57.55Z" class="cls-1"></path><path data-v-47467140="" d="M25.44,3.93A3.93,3.93,0,1,1,21.51,0,3.93,3.93,0,0,1,25.44,3.93Z" class="cls-1"></path><path data-v-47467140="" d="M56.59,36.94A3.93,3.93,0,1,1,52.66,33,3.93,3.93,0,0,1,56.59,36.94Z" class="cls-1"></path><path data-v-47467140="" d="M99.55,90.43a3.93,3.93,0,1,1-3.93-3.93A3.93,3.93,0,0,1,99.55,90.43Z" class="cls-1"></path><polygon data-v-47467140="" points="141.36 115.73 138.28 108.28 95.39 90.75 77.4 78.23 65.7 76.68 56.38 73.47 2.15 39.63 2.57 38.96 56.76 72.78 65.88 75.91 77.69 77.48 77.77 77.53 95.81 90.08 138.88 107.68 142.09 115.43 141.36 115.73"></polygon><polygon data-v-47467140="" points="77.16 77.95 74.1 65.7 65.4 66.5 64.59 57.68 52.34 37.18 21.23 4.2 21.8 3.66 52.99 36.74 65.35 57.43 66.11 65.64 74.7 64.86 77.92 77.76 77.16 77.95"></polygon></g></g></g></svg>