<svg width="500" height="500" data-v-47467140="" xmlns="http://www.w3.org/2000/svg" viewBox="0 0 162.68 136.22" class="" fill="#cf8a7c"><defs data-v-47467140=""></defs><title data-v-47467140="">Gemini</title><g data-v-47467140="" id="Layer_2" data-name="Layer 2"><g data-v-47467140="" id="Layer_1-2" data-name="Layer 1"><g data-v-47467140="" id="Gemini"><path data-v-47467140="" d="M162.68,55.22a2.36,2.36,0,1,1-2.35-2.35A2.35,2.35,0,0,1,162.68,55.22Z" class="cls-1"></path><circle data-v-47467140="" cx="2.36" cy="37.72" r="2.36"></circle><path data-v-47467140="" d="M9.43,57.58a2.36,2.36,0,1,1-2.36-2.36A2.36,2.36,0,0,1,9.43,57.58Z" class="cls-1"></path><path data-v-47467140="" d="M44.53,73.48a2.36,2.36,0,1,1-2.35-2.36A2.36,2.36,0,0,1,44.53,73.48Z" class="cls-1"></path><path data-v-47467140="" d="M72.57,82a2.36,2.36,0,1,1-2.36-2.36A2.36,2.36,0,0,1,72.57,82Z" class="cls-1"></path><path data-v-47467140="" d="M140.15,77.28a2.36,2.36,0,1,1-2.35-2.36A2.36,2.36,0,0,1,140.15,77.28Z" class="cls-1"></path><path data-v-47467140="" d="M146.18,55.22a2.36,2.36,0,1,1-2.36-2.35A2.36,2.36,0,0,1,146.18,55.22Z" class="cls-1"></path><path data-v-47467140="" d="M112.17,42.44a2.36,2.36,0,1,1-2.35-2.36A2.36,2.36,0,0,1,112.17,42.44Z" class="cls-1"></path><path data-v-47467140="" d="M58.16,11.79A2.36,2.36,0,1,1,55.8,9.43,2.36,2.36,0,0,1,58.16,11.79Z" class="cls-1"></path><path data-v-47467140="" d="M38.25,6.29a2.36,2.36,0,1,1-2.36-2.36A2.36,2.36,0,0,1,38.25,6.29Z" class="cls-1"></path><path data-v-47467140="" d="M117.89,133.87a2.36,2.36,0,1,1-2.36-2.36A2.36,2.36,0,0,1,117.89,133.87Z" class="cls-1"></path><path data-v-47467140="" d="M26.2,3.93A3.93,3.93,0,1,1,22.27,0,3.93,3.93,0,0,1,26.2,3.93Z" class="cls-1"></path><path data-v-47467140="" d="M127.06,103.48a3.93,3.93,0,1,1-3.93-3.93A3.93,3.93,0,0,1,127.06,103.48Z" class="cls-1"></path><polygon data-v-47467140="" points="115.91 133.96 115.15 133.77 122.66 103.71 70.06 82.36 42.06 73.86 6.74 57.86 1.94 37.66 22.07 3.5 35.96 5.9 55.99 11.45 110.01 42.1 143.89 54.83 160.32 54.83 160.32 55.62 143.68 55.59 109.68 42.81 55.65 12.15 35.78 6.67 22.47 4.36 2.78 37.79 7.41 57.3 42.34 73.13 70.32 81.62 123.59 103.24 115.91 133.96"></polygon><polygon data-v-47467140="" points="123.47 103.67 122.78 103.29 137.43 77.13 143.44 55.12 144.2 55.33 138.14 77.47 123.47 103.67"></polygon></g></g></g></svg>