<svg width="500" height="500" data-v-47467140="" xmlns="http://www.w3.org/2000/svg" viewBox="0 0 131.05 118.74" class="" fill="#376670"><defs data-v-47467140=""></defs><title data-v-47467140="">Leo</title><g data-v-47467140="" id="Layer_2" data-name="Layer 2"><g data-v-47467140="" id="Layer_1-2" data-name="Layer 1"><g data-v-47467140="" id="Leo"><path data-v-47467140="" d="M31.83,72.57a2.36,2.36,0,1,1-2.36-2.36A2.36,2.36,0,0,1,31.83,72.57Z" class="cls-1"></path><path data-v-47467140="" d="M14.54,113.24a2.36,2.36,0,1,1-2.36-2.36A2.36,2.36,0,0,1,14.54,113.24Z" class="cls-1"></path><path data-v-47467140="" d="M93.92,28.82a2.36,2.36,0,1,1-2.36-2.36A2.36,2.36,0,0,1,93.92,28.82Z" class="cls-1"></path><circle data-v-47467140="" cx="128.69" cy="8.65" r="2.36"></circle><path data-v-47467140="" d="M119.59,59.47a2.36,2.36,0,1,1-2.36-2.36A2.36,2.36,0,0,1,119.59,59.47Z" class="cls-1"></path><path data-v-47467140="" d="M114.87,2.36A2.36,2.36,0,1,1,112.52,0,2.36,2.36,0,0,1,114.87,2.36Z" class="cls-1"></path><path data-v-47467140="" d="M7.86,114.81a3.93,3.93,0,1,1-3.93-3.93A3.93,3.93,0,0,1,7.86,114.81Z" class="cls-1"></path><path data-v-47467140="" d="M130.26,83.7a3.93,3.93,0,1,1-3.93-3.93A3.93,3.93,0,0,1,130.26,83.7Z" class="cls-1"></path><circle data-v-47467140="" cx="95.49" cy="48.86" r="3.93"></circle><path data-v-47467140="" d="M41.78,102.17a3.93,3.93,0,1,1-3.93-3.93A3.93,3.93,0,0,1,41.78,102.17Z" class="cls-1"></path><path data-v-47467140="" d="M3.14,115.36,29.21,72.24l.13,0L95.51,48.43l22,10.75.06.15L126.86,84,38,102.54,12.26,113.62Zm26.6-42.47-25,41.37,7.35-1.4,25.7-11.08,88-18.37-8.89-23.66L95.46,49.28Z"></path><polygon data-v-47467140="" points="95.1 48.93 91.14 28.71 91.25 28.57 112.39 1.89 128.83 8.28 128.55 9.01 112.64 2.83 91.98 28.92 95.87 48.78 95.1 48.93"></polygon></g></g></g></svg>