<svg width="500" height="500" data-v-47467140="" xmlns="http://www.w3.org/2000/svg" viewBox="0 0 146.18 132.95" class="" fill="#fff"><defs data-v-47467140=""></defs><title data-v-47467140="">Capricorn</title><g data-v-47467140="" id="Layer_2" data-name="Layer 2"><g data-v-47467140="" id="Layer_1-2" data-name="Layer 1"><g data-v-47467140="" id="Capricorn"><circle data-v-47467140="" cx="136.75" cy="21.68" r="2.36"></circle><circle data-v-47467140="" cx="91.69" cy="130.59" r="2.36"></circle><path data-v-47467140="" d="M123.91,118.21a2.36,2.36,0,1,1-2.36-2.35A2.35,2.35,0,0,1,123.91,118.21Z" class="cls-1"></path><circle data-v-47467140="" cx="56.32" cy="130.59" r="2.36"></circle><circle data-v-47467140="" cx="28.42" cy="122.14" r="2.36"></circle><circle data-v-47467140="" cx="16.24" cy="107.73" r="2.36"></circle><path data-v-47467140="" d="M69.68,84.55a2.36,2.36,0,1,1-2.35-2.36A2.36,2.36,0,0,1,69.68,84.55Z" class="cls-1"></path><path data-v-47467140="" d="M146.18,3.93A3.93,3.93,0,1,1,142.25,0,3.93,3.93,0,0,1,146.18,3.93Z" class="cls-1"></path><path data-v-47467140="" d="M7.86,118.21a3.93,3.93,0,1,1-3.93-3.93A3.93,3.93,0,0,1,7.86,118.21Z" class="cls-1"></path><path data-v-47467140="" d="M121.55,128.23a3.93,3.93,0,1,1-3.93-3.93A3.93,3.93,0,0,1,121.55,128.23Z" class="cls-1"></path><path data-v-47467140="" d="M43.75,94.9A3.93,3.93,0,1,1,39.82,91,3.93,3.93,0,0,1,43.75,94.9Z" class="cls-1"></path><path data-v-47467140="" d="M91.71,131H56.21l-27.9-8.45L3,118.47l13-11.08L39.63,94.55,67.12,84.21l70.19-63.57-15.39,97.72-4,10.24Zm-35.33-.78H91.67l25.68-2.34,3.82-9.75,15-95.39L67.53,84.89l-.07,0L40,95.27,16.47,108.06,4.83,118l23.66,3.79Z" class=""></path><rect data-v-47467140="" x="130.21" y="12.41" width="18.58" height="0.79" transform="translate(85.87 142.22) rotate(-72.73)"></rect></g></g></g></svg>