<svg width="500" height="500" data-v-47467140="" xmlns="http://www.w3.org/2000/svg" viewBox="0 0 109.55 146.44" class="" fill="#fff"><defs data-v-47467140=""></defs><title data-v-47467140="">Libra</title><g data-v-47467140="" id="Layer_2" data-name="Layer 2"><g data-v-47467140="" id="Layer_1-2" data-name="Layer 1"><g data-v-47467140="" id="Libra"><path data-v-47467140="" d="M79.77,128a2.36,2.36,0,1,1-2.36-2.36A2.36,2.36,0,0,1,79.77,128Z" class="cls-1"></path><path data-v-47467140="" d="M88.81,144.08a2.36,2.36,0,1,1-2.36-2.35A2.36,2.36,0,0,1,88.81,144.08Z" class="cls-1"></path><circle data-v-47467140="" cx="2.36" cy="91.43" r="2.36"></circle><path data-v-47467140="" d="M16.11,73.09a2.36,2.36,0,1,1-2.36-2.36A2.36,2.36,0,0,1,16.11,73.09Z" class="cls-1"></path><path data-v-47467140="" d="M27.9,56.85a2.36,2.36,0,1,1-2.36-2.36A2.36,2.36,0,0,1,27.9,56.85Z" class="cls-1"></path><path data-v-47467140="" d="M109.55,85.4a3.93,3.93,0,1,1-3.93-3.93A3.92,3.92,0,0,1,109.55,85.4Z" class="cls-1"></path><path data-v-47467140="" d="M90.38,19.39a3.93,3.93,0,1,1-3.93-3.93A3.93,3.93,0,0,1,90.38,19.39Z" class="cls-1"></path><path data-v-47467140="" d="M25.54,3.93A3.93,3.93,0,1,1,21.61,0,3.93,3.93,0,0,1,25.54,3.93Z" class="cls-1"></path><polygon data-v-47467140="" points="86.11 144.28 76.95 127.95 105.2 85.34 86.14 19.71 22.04 4.44 25.95 56.96 14.07 73.32 2.69 91.63 2.02 91.22 13.42 72.88 25.14 56.73 21.18 3.42 86.76 19.06 106.05 85.47 105.95 85.62 77.87 127.99 86.79 143.89 86.11 144.28"></polygon><polygon data-v-47467140="" points="105.35 85.69 21.34 4.21 21.89 3.65 105.9 85.12 105.35 85.69"></polygon></g></g></g></svg>