<svg width="500" height="500" data-v-47467140="" xmlns="http://www.w3.org/2000/svg" viewBox="0 0 130.85 133.21" class="" fill="#000"><defs data-v-47467140=""></defs><title data-v-47467140="">Scorpio</title><g data-v-47467140="" id="Layer_2" data-name="Layer 2"><g data-v-47467140="" id="Layer_1-2" data-name="Layer 1"><g data-v-47467140="" id="Scorpio"><path data-v-47467140="" d="M94.41,37.33a3.93,3.93,0,1,1-3.93-3.93A3.93,3.93,0,0,1,94.41,37.33Z" class="cls-1"></path><path data-v-47467140="" d="M4.72,117.1a2.36,2.36,0,1,1-2.36-2.36A2.36,2.36,0,0,1,4.72,117.1Z" class="cls-1"></path><path data-v-47467140="" d="M9.43,109.63a2.36,2.36,0,1,1-2.36-2.35A2.35,2.35,0,0,1,9.43,109.63Z" class="cls-1"></path><path data-v-47467140="" d="M25.54,99.16a2.36,2.36,0,1,1-2.36-2.36A2.35,2.35,0,0,1,25.54,99.16Z" class="cls-1"></path><path data-v-47467140="" d="M19.25,98.37a3.93,3.93,0,1,1-3.92-3.93A3.92,3.92,0,0,1,19.25,98.37Z" class="cls-1"></path><path data-v-47467140="" d="M17.68,130.85a2.36,2.36,0,1,1-2.35-2.35A2.35,2.35,0,0,1,17.68,130.85Z" class="cls-1"></path><path data-v-47467140="" d="M43.62,130.85a2.36,2.36,0,1,1-2.36-2.35A2.36,2.36,0,0,1,43.62,130.85Z" class="cls-1"></path><circle data-v-47467140="" cx="60.08" cy="124.96" r="2.36"></circle><path data-v-47467140="" d="M64.8,101.51a2.36,2.36,0,1,1-2.36-2.35A2.36,2.36,0,0,1,64.8,101.51Z" class="cls-1"></path><path data-v-47467140="" d="M67.15,80.56A2.36,2.36,0,1,1,64.8,78.2,2.35,2.35,0,0,1,67.15,80.56Z" class="cls-1"></path><path data-v-47467140="" d="M84.49,48.33A2.36,2.36,0,1,1,82.13,46,2.36,2.36,0,0,1,84.49,48.33Z" class="cls-1"></path><path data-v-47467140="" d="M103,33.4A2.36,2.36,0,1,1,100.6,31,2.36,2.36,0,0,1,103,33.4Z" class="cls-1"></path><path data-v-47467140="" d="M126.14,2.36A2.36,2.36,0,1,1,123.78,0,2.36,2.36,0,0,1,126.14,2.36Z" class="cls-1"></path><path data-v-47467140="" d="M130.85,19.52a2.36,2.36,0,1,1-2.35-2.36A2.35,2.35,0,0,1,130.85,19.52Z" class="cls-1"></path><path data-v-47467140="" d="M130.85,39.69a2.36,2.36,0,1,1-2.35-2.36A2.36,2.36,0,0,1,130.85,39.69Z" class="cls-1"></path><polygon data-v-47467140="" points="41.32 131.25 15.16 131.25 1.86 117.15 6.74 109.42 15.14 97.96 23.22 98.77 23.14 99.55 15.51 98.78 7.39 109.87 2.85 117.05 15.49 130.46 41.2 130.46 59.72 124.66 62.05 101.47 64.45 80.37 81.78 48.15 90.23 37 100.57 32.99 100.68 33.02 128.58 39.3 128.41 40.07 100.63 33.81 90.72 37.66 82.44 48.57 65.18 80.67 62.83 101.56 60.45 125.26 41.32 131.25"></polygon><polygon data-v-47467140="" points="99.29 34.49 123.47 2.12 124.09 2.59 101.9 32.31 128.32 19.17 128.67 19.87 99.29 34.49"></polygon></g></g></g></svg>