<svg width="500" height="500" data-v-47467140="" xmlns="http://www.w3.org/2000/svg" viewBox="0 0 150.07 115.53" class="" fill="#fff"><defs data-v-47467140=""></defs><title data-v-47467140="">Virgo</title><g data-v-47467140="" id="Layer_2" data-name="Layer 2"><g data-v-47467140="" id="Layer_1-2" data-name="Layer 1"><g data-v-47467140="" id="Virgo"><circle data-v-47467140="" cx="42.86" cy="101.97" r="2.36"></circle><path data-v-47467140="" d="M53.21,110a2.36,2.36,0,1,1-2.36-2.36A2.36,2.36,0,0,1,53.21,110Z" class="cls-1"></path><circle data-v-47467140="" cx="89.95" cy="69.33" r="2.36"></circle><path data-v-47467140="" d="M128.26,30.45a2.36,2.36,0,1,1-2.36-2.35A2.36,2.36,0,0,1,128.26,30.45Z" class="cls-1"></path><path data-v-47467140="" d="M109,40.08a2.36,2.36,0,1,1-2.35-2.36A2.36,2.36,0,0,1,109,40.08Z" class="cls-1"></path><path data-v-47467140="" d="M66,61.1a2.36,2.36,0,1,1-2.36-2.35A2.36,2.36,0,0,1,66,61.1Z" class="cls-1"></path><path data-v-47467140="" d="M49.93,63.46a2.36,2.36,0,1,1-2.36-2.36A2.36,2.36,0,0,1,49.93,63.46Z" class="cls-1"></path><path data-v-47467140="" d="M41.22,63.46a2.36,2.36,0,1,1-2.36-2.36A2.36,2.36,0,0,1,41.22,63.46Z" class="cls-1"></path><path data-v-47467140="" d="M7.86,80.36a3.93,3.93,0,1,1-3.93-3.93A3.93,3.93,0,0,1,7.86,80.36Z" class="cls-1"></path><path data-v-47467140="" d="M71.48,7a3.93,3.93,0,1,1-3.93-3.93A3.93,3.93,0,0,1,71.48,7Z" class="cls-1"></path><path data-v-47467140="" d="M150.07,3.93A3.93,3.93,0,1,1,146.14,0,3.93,3.93,0,0,1,150.07,3.93Z" class="cls-1"></path><path data-v-47467140="" d="M90,32A3.93,3.93,0,1,1,86,28.1,3.93,3.93,0,0,1,90,32Z" class="cls-1"></path><path data-v-47467140="" d="M92.3,96.86a3.93,3.93,0,1,1-3.93-3.93A3.93,3.93,0,0,1,92.3,96.86Z" class="cls-1"></path><path data-v-47467140="" d="M23.58,111.6a3.93,3.93,0,1,1-3.93-3.93A3.93,3.93,0,0,1,23.58,111.6Z" class="cls-1"></path><polygon data-v-47467140="" points="19.8 111.96 19.5 111.24 42.95 101.51 50.95 109.57 88 96.58 89.56 69.21 89.61 69.13 106.36 39.78 106.47 39.73 125.64 30.14 145.83 3.69 146.45 4.17 126.16 30.77 106.93 40.38 90.33 69.44 88.75 97.15 50.74 110.48 42.77 102.44 19.8 111.96"></polygon><polygon data-v-47467140="" points="4.1 80.71 3.76 80 38.77 63.07 47.57 63.07 63.41 60.74 85.53 32.02 67.23 7.24 67.86 6.77 86.51 32.03 63.83 61.47 63.68 61.49 47.63 63.85 38.95 63.85 4.1 80.71"></polygon><rect data-v-47467140="" x="75.6" y="57.24" width="0.79" height="43.49" transform="translate(-31.45 57.3) rotate(-34.7)"></rect><rect data-v-47467140="" x="95.94" y="24.98" width="0.79" height="22.15" transform="translate(27.71 112.67) rotate(-68.67)"></rect></g></g></g></svg>