<svg width="500" height="500" data-v-47467140="" xmlns="http://www.w3.org/2000/svg" viewBox="0 0 72.58 82.08" class="" fill="#376670"><defs data-v-47467140=""></defs><title data-v-47467140="">Gemini</title><g data-v-47467140="" id="Layer_2" data-name="Layer 2"><g data-v-47467140="" id="Gemini_Mono" data-name="Gemini Mono"><g data-v-47467140="" id="Gemini_Symbol" data-name="Gemini Symbol"><path data-v-47467140="" d="M1.11,3.35c21.87,8.93,48.37,7.2,70.31,0,2-.67,1.17-3.89-.88-3.22C49.11,7.16,23.36,8.85,2,.13,0-.68-.86,2.55,1.11,3.35Z" class="cls-1"></path><path data-v-47467140="" d="M2,82c21.36-8.73,47.11-7,68.54,0,2,.67,2.92-2.56.88-3.22-21.94-7.2-48.44-8.93-70.31,0-2,.8-1.1,4,.89,3.22Z" class="cls-1"></path><path data-v-47467140="" d="M20.84,7V75.1a1.67,1.67,0,0,0,3.34,0V7a1.67,1.67,0,0,0-3.34,0Z" class="cls-1"></path><path data-v-47467140="" d="M47,7.64V75.75a1.67,1.67,0,0,0,3.34,0V7.64a1.67,1.67,0,0,0-3.34,0Z" class="cls-1"></path></g></g></g></svg>