<svg width="500" height="500" data-v-47467140="" xmlns="http://www.w3.org/2000/svg" viewBox="0 0 63.42 102.01" class="" fill="#376670"><defs data-v-47467140=""></defs><title data-v-47467140="">Pisces</title><g data-v-47467140="" id="Layer_2" data-name="Layer 2"><g data-v-47467140="" id="Pisces_Mono" data-name="Pisces Mono"><path data-v-47467140="" d="M.37,3.14C19.73,31.66,23,70.57.71,98.24c-1.72,2.13,1.3,5.19,3,3C27.28,72.11,24.65,31.27,4.08,1,2.54-1.31-1.18.84.37,3.14Z" class="cls-1"></path><path data-v-47467140="" d="M59.33,1c-20.56,30.3-23.19,71.14.34,100.31,1.74,2.15,4.76-.91,3-3-22.33-27.67-19-66.58.33-95.1C64.6.84,60.88-1.31,59.33,1Z" class="cls-1"></path><path data-v-47467140="" d="M2.23,53.06h59c2.76,0,2.77-4.3,0-4.3h-59c-2.77,0-2.77,4.3,0,4.3Z" class="cls-1"></path></g></g></svg>