<svg width="500" height="500" data-v-47467140="" xmlns="http://www.w3.org/2000/svg" viewBox="0 0 93.68 69.97" class="" fill="#fff"><defs data-v-47467140=""></defs><title data-v-47467140="">Cancer</title><g data-v-47467140="" id="Layer_2" data-name="Layer 2"><g data-v-47467140="" id="Cancer_Mono" data-name="Cancer Mono"><path data-v-47467140="" d="M31.87,29.68c-1,18.22-28.48,18.39-28.48,0s27.49-18.25,28.48,0c.11,2.16,3.5,2.18,3.38,0-.51-9.57-7.64-17.63-17.62-17.63A17.81,17.81,0,0,0,0,29.68,17.79,17.79,0,0,0,16.76,47.26c10.32.49,18-7.66,18.49-17.58C35.37,27.5,32,27.51,31.87,29.68Z" class="cls-1"></path><path data-v-47467140="" d="M7.89,19.31c20.39-21.08,56.09-18,81-9.25,2.06.73,2.94-2.54.9-3.26C63.71-2.4,26.73-5,5.49,16.91c-1.51,1.57.88,4,2.4,2.4Z" class="cls-1"></path><path data-v-47467140="" d="M61.81,40.3c1-18.23,28.48-18.4,28.48,0s-27.5,18.24-28.48,0c-.12-2.17-3.51-2.18-3.39,0,.52,9.56,7.65,17.62,17.63,17.62a17.61,17.61,0,0,0,.87-35.2c-10.32-.5-18,7.66-18.5,17.58C58.3,42.48,61.69,42.47,61.81,40.3Z" class="cls-1"></path><path data-v-47467140="" d="M85.79,50.67c-20.4,21.08-56.1,18-81,9.24-2.06-.73-2.95,2.54-.9,3.27C30,72.38,66.94,75,88.18,53.06c1.52-1.57-.87-4-2.39-2.39Z" class="cls-1"></path></g></g></svg>