<svg width="22" height="19" viewBox="0 0 22 19" fill="none" xmlns="http://www.w3.org/2000/svg">
<path fill-rule="evenodd" clip-rule="evenodd" d="M20.8288 2.48868C20.9855 2.56382 21.1237 2.67339 21.2334 2.80944C21.3436 2.94524 21.4226 3.10415 21.4648 3.27469C21.507 3.44522 21.5113 3.62313 21.4774 3.79556L20.0718 10.9206C20.018 11.1897 19.8742 11.4317 19.6646 11.6056C19.4551 11.7795 19.1927 11.8747 18.9219 11.8751H7.12708L7.40235 13.4584H19.2421C19.4492 13.4584 19.6478 13.5418 19.7943 13.6903C19.9407 13.8387 20.023 14.0401 20.023 14.2501C20.023 14.46 19.9407 14.6614 19.7943 14.8099C19.6478 14.9583 19.4492 15.0417 19.2421 15.0417H6.74735C6.56374 15.0418 6.38599 14.9762 6.24532 14.8566C6.10465 14.737 6.01005 14.5709 5.97815 14.3876L3.7496 1.58334H1.28092C1.07381 1.58334 0.875177 1.49993 0.728726 1.35147C0.582275 1.203 0.5 1.00163 0.5 0.79167C0.5 0.581706 0.582275 0.380342 0.728726 0.231875C0.875177 0.083408 1.07381 1.75013e-08 1.28092 1.75013e-08H4.4046C4.58821 -3.91041e-05 4.76596 0.0655108 4.90663 0.185136C5.0473 0.304761 5.1419 0.47081 5.1738 0.654117L5.47299 2.37501H20.3275C20.5009 2.37471 20.6721 2.41354 20.8288 2.48868ZM7.55143 19C8.4268 19 9.13643 18.2911 9.13643 17.4167C9.13643 16.5422 8.4268 15.8333 7.55143 15.8333C6.67606 15.8333 5.96643 16.5422 5.96643 17.4167C5.96643 18.2911 6.67606 19 7.55143 19ZM18.4843 19C19.3597 19 20.0693 18.2911 20.0693 17.4167C20.0693 16.5422 19.3597 15.8333 18.4843 15.8333C17.6089 15.8333 16.8993 16.5422 16.8993 17.4167C16.8993 18.2911 17.6089 19 18.4843 19Z" fill="#131d63"/>
</svg>