<svg width="26" height="26" viewBox="0 0 26 26" fill="none" xmlns="http://www.w3.org/2000/svg">
<path d="M4.1611 4.16116C-0.712582 9.03485 -0.712582 16.9652 4.1611 21.8388C9.03478 26.7125 16.9651 26.7125 21.8388 21.8388C26.7125 16.9652 26.7125 9.03485 21.8388 4.16116C16.9651 -0.712519 9.03478 -0.712519 4.1611 4.16116ZM17.0794 8.92054C17.4549 9.29604 17.4549 9.90486 17.0794 10.2804L14.3598 13L17.0794 15.7196C17.4549 16.0951 17.4549 16.704 17.0794 17.0795C16.7039 17.455 16.0951 17.455 15.7196 17.0795L12.9999 14.3598L10.2803 17.0795C9.90479 17.455 9.29598 17.455 8.92047 17.0795C8.54497 16.704 8.54497 16.0951 8.92047 15.7196L11.6401 13L8.92047 10.2804C8.54497 9.90485 8.54497 9.29604 8.92047 8.92054C9.29598 8.54503 9.90479 8.54503 10.2803 8.92054L12.9999 11.6402L15.7196 8.92054C16.0951 8.54503 16.7039 8.54503 17.0794 8.92054Z" fill="#EC496D"/>
</svg>
