<svg width="30" height="31" viewBox="0 0 30 31" fill="none" xmlns="http://www.w3.org/2000/svg">
<g clip-path="url(#clip0)">
<path d="M6.1611 6.27445C1.28742 11.1481 1.28742 19.0784 6.1611 23.9521C11.0348 28.8258 18.9651 28.8258 23.8388 23.9521C28.7125 19.0784 28.7125 11.1481 23.8388 6.27445C18.9651 1.40076 11.0348 1.40076 6.1611 6.27445ZM19.0794 11.0338C19.4549 11.4093 19.4549 12.0181 19.0794 12.3936L16.3598 15.1133L19.0794 17.8329C19.4549 18.2084 19.4549 18.8172 19.0794 19.1927C18.7039 19.5682 18.0951 19.5682 17.7196 19.1927L14.9999 16.4731L12.2803 19.1927C11.9048 19.5682 11.296 19.5682 10.9205 19.1927C10.545 18.8172 10.545 18.2084 10.9205 17.8329L13.6401 15.1133L10.9205 12.3936C10.545 12.0181 10.545 11.4093 10.9205 11.0338C11.296 10.6583 11.9048 10.6583 12.2803 11.0338L14.9999 13.7535L17.7196 11.0338C18.0951 10.6583 18.7039 10.6583 19.0794 11.0338Z" fill="#131d63"/>
</g>
<defs>
<clipPath id="clip0">
<rect width="30" height="30" fill="white" transform="translate(0 0.113281)"/>
</clipPath>
</defs>
</svg>
