<svg width="512" height="512" viewBox="0 0 512 512" fill="none" xmlns="http://www.w3.org/2000/svg">
<path d="M256 0C114.842 0 0 114.843 0 256.002C0 397.16 114.842 512 256 512C397.158 512 512 397.16 512 256.002C512 114.843 397.158 0 256 0ZM256 465.455C140.505 465.455 46.5455 371.495 46.5455 256.002C46.5455 140.508 140.505 46.5455 256 46.5455C371.495 46.5455 465.455 140.508 465.455 256.002C465.455 371.495 371.493 465.455 256 465.455Z" fill="#131D63"/>
<path d="M255.997 108.605C238.89 108.605 224.973 122.532 224.973 139.65C224.973 156.752 238.89 170.666 255.997 170.666C273.104 170.666 287.021 156.752 287.021 139.65C287.021 122.532 273.104 108.605 255.997 108.605Z" fill="#131D63"/>
<path d="M256 217.212C243.148 217.212 232.728 227.632 232.728 240.485V380.121C232.728 392.974 243.148 403.394 256 403.394C268.853 403.394 279.273 392.974 279.273 380.121V240.485C279.273 227.632 268.853 217.212 256 217.212Z" fill="#131D63"/>
</svg>
