<svg xmlns="http://www.w3.org/2000/svg" xmlns:xlink="http://www.w3.org/1999/xlink" x="0px" y="0px" viewBox="237.7 110.9 366.4 254.4" enable-background="new 237.7 110.9 366.4 254.4" xml:space="preserve"><g><g><path d="M480.7,300.1c16.4,0,32.6-0.8,48-2.3c6.5-0.6,11.3-6.5,10.7-13c-0.6-6.5-6.4-11.3-13-10.7c-78.4,7.6-161.3-5.3-181.2-28.3c-3.6-4.1-4.6-8.1-3.5-12.6c4.1-6.5,40.7-8.6,81.8-1.7c6.5,1.1,12.6-3.3,13.7-9.8c1.1-6.5-3.3-12.6-9.8-13.7c-30-5.1-100.8-13.3-108.8,19.3c-3.1,12.3-0.1,24.1,8.5,34.1C350.4,288.2,416.3,300.1,480.7,300.1z"></path><path d="M417,234.9c-6.5-1.1-12.6,3.3-13.7,9.8c-1.1,6.5,3.3,12.6,9.8,13.7c12.6,2.1,32.3,4.8,51.6,4.8c26.7,0,52.5-5.2,57.2-24.1c3.1-12.3,0.1-24.1-8.5-34.1c-29-33.6-125.4-43.8-201.5-36.4c-6.5,0.6-11.3,6.5-10.7,13c0.6,6.5,6.5,11.3,13,10.7c78.4-7.6,161.4,5.3,181.2,28.3c3.6,4.1,4.6,8.1,3.5,12.6C494.7,239.7,458.1,241.9,417,234.9z"></path><path d="M587.9,334.4c-43.7,17.2-205.1,4.2-274.8-50.2c-22.1-17.3-33.7-33.7-32.7-46.2c1-11.8,13.1-18.6,13.5-18.8c5.8-3.1,8-10.2,5-16c-3-5.8-10.2-8.1-16.1-5c-1,0.5-23.8,12.7-26.1,37.6c-2,21.5,12.1,44.1,41.8,67.3c55.8,43.5,158.2,62.3,230.5,62.3c29.1,0,53.3-3,67.7-8.7c6.1-2.4,9.1-9.3,6.7-15.4C600.9,335,594,332,587.9,334.4z"></path><path d="M528.8,192c22.1,17.3,33.7,33.7,32.7,46.2c-1,11.8-13.1,18.6-13.5,18.8c-5.8,3.1-8,10.2-5,16c2.1,4.1,6.3,6.4,10.6,6.4c1.9,0,3.7-0.4,5.5-1.4c1-0.5,23.8-12.7,26.1-37.6c2-21.5-12.1-44.1-41.8-67.3c-78.2-61-248-73.4-298.2-53.6c-6.1,2.4-9.1,9.3-6.7,15.4c2.4,6.1,9.3,9.1,15.4,6.7C297.7,124.6,459.1,137.6,528.8,192z"></path></g></g></svg>