<svg width="24" height="25" viewBox="0 0 24 25" fill="none" xmlns="http://www.w3.org/2000/svg">
<path fill-rule="evenodd" clip-rule="evenodd" d="M19.0861 5.40629C18.1616 4.48132 17.0633 3.74835 15.8543 3.24958C14.6454 2.7508 13.3497 2.49607 12.0419 2.50005C6.55356 2.50005 2.08571 6.94557 2.08348 12.4107C2.08105 14.151 2.53977 15.8608 3.41294 17.3661L2 22.5L7.27901 21.1219C8.74027 21.9135 10.376 22.3278 12.0379 22.3272H12.0419C17.5299 22.3272 21.9973 17.8813 22 12.4165C22.0033 11.1132 21.7474 9.82225 21.2472 8.61875C20.7469 7.41525 20.0123 6.32325 19.0861 5.40629ZM12.0419 20.6545H12.0384C10.5569 20.6549 9.10227 20.2584 7.82588 19.5063L7.52365 19.3277L4.39107 20.1455L5.22723 17.1058L5.03035 16.7933C4.20195 15.4818 3.76305 13.962 3.76473 12.4107C3.76473 7.86923 7.47946 4.17415 12.0451 4.17415C14.2352 4.17024 16.3373 5.03644 17.8889 6.58223C19.4404 8.12803 20.3145 10.2268 20.3187 12.417C20.3169 16.9589 16.604 20.6545 12.0419 20.6545ZM16.5817 14.4853C16.333 14.3612 15.1085 13.7621 14.8817 13.6795C14.6549 13.5969 14.4875 13.5554 14.3219 13.8036C14.1562 14.0518 13.679 14.6072 13.5339 14.7746C13.3888 14.942 13.2437 14.9603 12.9951 14.8362C12.7464 14.7121 11.9442 14.4509 10.9937 13.6072C10.254 12.9505 9.7549 12.1398 9.60981 11.892C9.46472 11.6442 9.59418 11.5098 9.71874 11.3866C9.83079 11.2755 9.9674 11.0973 10.092 10.9527C10.2165 10.8081 10.258 10.7045 10.3406 10.5393C10.4232 10.3741 10.3821 10.2295 10.3201 10.1058C10.258 9.98217 9.76026 8.76298 9.55311 8.267C9.35088 7.78396 9.14597 7.84959 8.99329 7.842C8.8482 7.83486 8.68079 7.83307 8.51606 7.83307C8.39013 7.83635 8.26622 7.86555 8.15208 7.91886C8.03794 7.97216 7.93602 8.04843 7.85267 8.14289C7.62455 8.3911 6.98169 8.9911 6.98169 10.209C6.98169 11.4268 7.87454 12.6054 7.99776 12.7706C8.12097 12.9357 9.75222 15.4371 12.2482 16.5098C12.7117 16.7083 13.1852 16.8824 13.6669 17.0313C14.2629 17.2197 14.8053 17.1933 15.2339 17.1295C15.712 17.0585 16.7071 16.5304 16.9138 15.9518C17.1205 15.3732 17.121 14.8777 17.0589 14.7746C16.9969 14.6714 16.8308 14.6089 16.5817 14.4853Z" fill="#ED6E33"/>
</svg>
